normalP042_grf.mot
version=1
nRows=27
nColumns=19
inDegrees=yes
endheader
time	1_ground_force_vx	1_ground_force_vy	1_ground_force_vz	1_ground_force_px	1_ground_force_py	1_ground_force_pz	1_ground_torque_x	1_ground_torque_y	1_ground_torque_z	2_ground_force_vx	2_ground_force_vy	2_ground_force_vz	2_ground_force_px	2_ground_force_py	2_ground_force_pz	2_ground_torque_x	2_ground_torque_y	2_ground_torque_z
            1.540000	          -75.713242	          614.556421	           35.580473	            0.315793	            0.003059	           -0.372408	            0.044796	           -0.363603	           -0.021051	           -0.017342	            0.551747	            0.004133	            0.941316	            0.001009	           -0.255282	            0.002027	           -0.001550	           -0.033972
            1.541000	          -75.293237	          618.140368	           35.828698	            0.316068	            0.003058	           -0.372430	            0.043558	           -0.357602	           -0.020727	           -0.018895	            0.071074	            0.025357	            0.941316	            0.001009	           -0.255282	           -0.098890	           -0.006575	            0.007848
            1.542000	          -74.820491	          621.483959	           36.183179	            0.316446	            0.003056	           -0.372311	            0.042634	           -0.354135	           -0.020618	           -0.030841	            1.110677	           -0.009127	            0.941316	            0.001009	           -0.255282	           -0.047967	           -0.004852	            0.027971
            1.543000	          -74.359461	          623.791756	           36.496118	            0.316553	            0.003056	           -0.372524	            0.045701	           -0.383376	           -0.022430	            0.013347	            0.551780	           -0.003435	            0.941316	            0.001009	           -0.255282	           -0.031539	            0.002416	           -0.117138
            1.544000	          -73.903751	          626.736213	           36.765102	            0.317300	            0.003053	           -0.372511	            0.044166	           -0.374543	           -0.021971	            0.006976	            0.950630	            0.005679	            0.941316	            0.001009	           -0.255282	           -0.048203	            0.000764	            0.028395
            1.545000	          -73.443128	          628.963927	           37.093140	            0.317437	            0.003054	           -0.372820	            0.045716	           -0.391506	           -0.023089	           -0.002482	            0.390960	            0.019113	            0.941316	            0.001009	           -0.255282	           -0.098811	            0.001901	           -0.033712
            1.546000	          -72.936262	          631.271335	           37.375351	            0.317800	            0.003053	           -0.372925	            0.046945	           -0.406317	           -0.024057	            0.005359	            0.471828	           -0.057631	            0.941316	            0.001009	           -0.255282	            0.018896	            0.003707	            0.028303
            1.547000	          -72.414959	          633.418862	           37.710585	            0.318164	            0.003052	           -0.373116	            0.046714	           -0.408608	           -0.024326	           -0.009672	            0.549958	           -0.011254	            0.941316	            0.001009	           -0.255282	           -0.199430	           -0.005893	            0.007760
            1.548000	          -71.992593	          635.646747	           38.092222	            0.318425	            0.003051	           -0.373159	            0.045880	           -0.405094	           -0.024276	           -0.025268	            0.472647	           -0.003877	            0.941316	            0.001009	           -0.255282	            0.085962	           -0.005362	           -0.054898
            1.549000	          -71.532951	          637.634961	           38.480692	            0.318789	            0.003050	           -0.373327	            0.045225	           -0.403125	           -0.024328	            0.006446	            0.791264	           -0.025784	            0.941316	            0.001009	           -0.255282	           -0.048304	           -0.010167	           -0.054797
            1.550000	          -71.043978	          639.304193	           38.829713	            0.319355	            0.003048	           -0.373293	            0.044602	           -0.401361	           -0.024378	            0.027859	            0.310789	           -0.004572	            0.941316	            0.001009	           -0.255282	           -0.115495	           -0.004033	           -0.013166
            1.551000	          -70.615836	          641.053245	           39.286430	            0.319625	            0.003048	           -0.373585	            0.043660	           -0.396343	           -0.024290	            0.019939	            0.232181	           -0.004864	            0.941316	            0.001009	           -0.255282	            0.102681	           -0.006750	            0.090743
            1.552000	          -70.192611	          643.519870	           39.638158	            0.320031	            0.003046	           -0.373606	            0.042536	           -0.389968	           -0.024020	           -0.018654	            0.151274	           -0.012754	            0.941316	            0.001009	           -0.255282	           -0.048484	           -0.005012	            0.070183
            1.553000	          -69.776970	          643.993097	           40.090764	            0.320341	            0.003046	           -0.374031	            0.045188	           -0.417052	           -0.025963	            0.035008	            0.150394	           -0.020557	            0.941316	            0.001009	           -0.255282	           -0.115657	           -0.009350	            0.111840
            1.554000	          -69.461718	          646.219758	           40.549119	            0.320972	            0.003044	           -0.373973	            0.041200	           -0.383294	           -0.024051	           -0.033748	            0.231190	           -0.012389	            0.941316	            0.001009	           -0.255282	            0.001934	            0.004872	            0.174185
            1.555000	          -69.095762	          647.730310	           40.943827	            0.321275	            0.003043	           -0.374071	            0.040763	           -0.382129	           -0.024155	           -0.040875	            0.391772	            0.003597	            0.941316	            0.001009	           -0.255282	            0.001933	            0.003904	            0.007803
            1.556000	          -68.755853	          648.441415	           41.435587	            0.321795	            0.003042	           -0.374478	            0.040367	           -0.380707	           -0.024327	           -0.024462	            0.711659	           -0.002921	            0.941316	            0.001009	           -0.255282	            0.001946	           -0.007609	           -0.033832
            1.557000	          -68.467653	          649.633435	           41.890648	            0.322105	            0.003041	           -0.374637	            0.039669	           -0.376382	           -0.024270	           -0.003055	            0.230752	            0.010574	            0.941316	            0.001009	           -0.255282	           -0.098879	           -0.003528	            0.049517
            1.558000	          -68.194727	          650.824855	           42.376286	            0.322605	            0.003040	           -0.374693	            0.038760	           -0.369912	           -0.024086	           -0.033723	            0.231815	           -0.027653	            0.941316	            0.001009	           -0.255282	            0.001977	            0.003662	            0.049274
            1.559000	          -67.931451	          651.536788	           42.806890	            0.323183	            0.003038	           -0.374844	            0.036149	           -0.346707	           -0.022779	            0.012276	            0.231362	           -0.020184	            0.941316	            0.001009	           -0.255282	           -0.031748	           -0.006999	            0.049466
            1.560000	          -67.720987	          652.408959	           43.268675	            0.323566	            0.003038	           -0.375265	            0.037766	           -0.363832	           -0.024130	            0.012004	            0.151707	            0.018038	            0.941316	            0.001009	           -0.255282	           -0.014875	            0.008875	           -0.012983
            1.561000	          -67.510279	          653.361290	           43.700069	            0.324227	            0.003035	           -0.375240	            0.035049	           -0.339204	           -0.022688	           -0.001746	            0.631610	            0.019802	            0.941316	            0.001009	           -0.255282	            0.018844	            0.001549	           -0.013177
            1.562000	          -67.316756	          653.834798	           44.137647	            0.324655	            0.003035	           -0.375711	            0.036137	           -0.350994	           -0.023694	           -0.001469	            0.710878	            0.012604	            0.941316	            0.001009	           -0.255282	           -0.031405	            0.009023	            0.049167
            1.563000	          -67.142069	          655.345259	           44.624447	            0.325070	            0.003033	           -0.375603	            0.034110	           -0.332933	           -0.022670	           -0.019678	           -0.168833	           -0.006136	            0.941316	            0.001009	           -0.255282	           -0.115791	           -0.001074	            0.028840
            1.564000	          -66.963807	          655.819412	           45.023750	            0.325620	            0.003031	           -0.375718	            0.033188	           -0.325035	           -0.022315	            0.005661	            0.551869	           -0.026467	            0.941316	            0.001009	           -0.255282	            0.035566	            0.005313	            0.007741
            1.565000	          -66.770993	          656.134243	           45.437728	            0.325989	            0.003030	           -0.375911	            0.034465	           -0.338676	           -0.023454	           -0.025504	            0.391419	            0.011412	            0.941316	            0.001009	           -0.255282	           -0.031677	            0.004352	            0.007895
            1.566000	          -66.608051	          656.607716	           45.898333	            0.326538	            0.003029	           -0.376230	            0.033468	           -0.329922	           -0.023062	           -0.018095	            0.311553	            0.026538	            0.941316	            0.001009	           -0.255282	           -0.048448	            0.010264	           -0.054502
